{"title":"Elizabeth-The Golden Age-Multisubs-BRRip 2007 TBS","uid":6039403,"size":1571731988,"categoryP":"video","categoryS":"movies","magnet":"?xt=urn:btih:783b8a161087533518d872f2c7d2627d8394591e&amp;dn=Elizabeth-The+Golden+Age-Multisubs-BRRip+2007+TBS&amp;tr=udp%3A%2F%2Ftracker.openbittorrent.com%3A80&amp;tr=udp%3A%2F%2Fopen.demonii.com%3A1337&amp;tr=udp%3A%2F%2Ftracker.coppersurfer.tk%3A6969&amp;tr=udp%3A%2F%2Fexodus.desync.com%3A6969","seeders":2,"leechers":0,"uploader":"FatFreddy30","files":-1,"time":1292335910,"description":"A mature Queen Elizabeth endures multiple crises late in her reign including court intrigues, an assassination plot, the Spanish Armada, and romantic disappointments.\n &lt;a href=&quot;\nhttp://www.imdb.com/title/tt0414055/&quot; rel=&quot;nofollow&quot; target=&quot;_NEW&quot;&gt;\nhttp://www.imdb.com/title/tt0414055/&lt;/a&gt;\n\nSubs (srt): Bulgarian, Danish, Dutch, English, Estonian, Finnish, French, Hungarian, Norwegian, Romanian, Slowakian, Spanish and Swedish.\n\nHet verhaal van de kruistocht van een vrouw om liefde, het verslaan van vijanden en het behouden van haar positie in de de westelijke wereld. Wanneer de katholieke Mary Stuart, de nicht van de protestantse koningin Elizabeth I, een band schept met Phillip van Spanje voor een hogere positie op de troon, is het Sir Francis Walsingham die de koningin tegen Mary Stuart moet beschermen in een machtsstrijd om de Engelse troon. Elizabeth moet sterk in haar schoenen staan en zelfs bereid zijn een oorlog te beginnen. En terwijl iedereen van haar verwacht dat ze trouwt met een geschikte partij om zo de opvolging veilig te stellen, wordt ze heimelijk verliefd op de avonturier, ontdekker en piraat Walter Raleigh.\n &lt;a href=&quot;\nhttp://www.moviemeter.nl/film/39369&quot; rel=&quot;nofollow&quot; target=&quot;_NEW&quot;&gt;\nhttp://www.moviemeter.nl/film/39369&lt;/a&gt;\n\nOndertitels (srt): Bulgaars, Deens, Engels, Estlands, Fins, Frans, Hongaars, Nederlands, Noors, Roemeens, Slowaaks, Spaans en Zweeds.\n\nGeneral\nComplete name                    : Elizabeth-The Golden Age-Multisubs-BRRip 2007 TBS\\Elizabeth-The Golden Age-Multisubs-BRRip 2007.avi\nFormat                           : AVI\nFormat/Info                      : Audio Video Interleave\nFile size                        : 1.46 GiB\nDuration                         : 1h 54mn\nOverall bit rate                 : 1 821 Kbps\nWriting application              : VirtualDubMod 1.5.4.1 (build 2178/release)\nWriting library                  : VirtualDubMod build 2178/release\nSource                           : Elizabeth.The.Golden.Age.2007.Blu-ray.Re.x264.720p.DTS-HDS\n\nVideo\nID                               : 0\nFormat                           : MPEG-4 Visual\nFormat profile                   : Simple@L3\nFormat settings, BVOP            : No\nFormat settings, QPel            : No\nFormat settings, GMC             : No warppoints\nFormat settings, Matrix          : Default (H.263)\nCodec ID                         : XVID\nCodec ID/Hint                    : XviD\nDuration                         : 1h 54mn\nBit rate                         : 1 364 Kbps\nWidth                            : 720 pixels\nHeight                           : 400 pixels\nDisplay aspect ratio             : 16:9\nFrame rate                       : 23.976 fps\nResolution                       : 8 bits\nColorimetry                      : 4:2:0\nScan type                        : Progressive\nBits/(Pixel*Frame)               : 0.198\nStream size                      : 1.09 GiB (75%)\nWriting library                  : XviD 1.1.2 (UTC 2006-11-01)\n\nAudio\nID                               : 1\nFormat                           : AC-3\nFormat/Info                      : Audio Coding 3\nCodec ID                         : 2000\nDuration                         : 1h 54mn\nBit rate mode                    : Constant\nBit rate                         : 448 Kbps\nChannel(s)                       : 6 channels\nChannel positions                : Front: L C R, Surround: L R, LFE\nSampling rate                    : 48.0 KHz\nStream size                      : 368 MiB (25%)\nAlignment                        : Split accross interleaves\nInterleave, duration             : 42 ms (1.00 video frame)\nInterleave, preload duration     : 500 ms\n\nBlackbeard  TBS.\n\nEnjoy..","torrent":{"xt":"urn:btih:783b8a161087533518d872f2c7d2627d8394591e","amp;dn":"Elizabeth-The+Golden+Age-Multisubs-BRRip+2007+TBS","amp;tr":["udp%3A%2F%2Ftracker.openbittorrent.com%3A80","udp%3A%2F%2Fopen.demonii.com%3A1337","udp%3A%2F%2Ftracker.coppersurfer.tk%3A6969","udp%3A%2F%2Fexodus.desync.com%3A6969"],"infoHash":"783b8a161087533518d872f2c7d2627d8394591e","infoHashBuffer":{"type":"Buffer","data":[120,59,138,22,16,135,83,53,24,216,114,242,199,210,98,125,131,148,89,30]},"announce":[],"urlList":[]}}